# xmcd
#
# Track frame offsets:
#	150
#	16024
#	30053
#	44728
#	57443
#	71633
#	86298
#	100256
#	112902
#	126611
#
# Disc length: 1870 seconds
#
# Revision: 1
# Processed by: cddbd v1.5.2PL0 Copyright (c) Steve Scherf et al.
# Submitted via: audiograbber 1.83.01
#
DISCID=7b074c0a
DTITLE=Cal Smith - Country Bumpkin
DYEAR=2006
DGENRE=Country
TTITLE0=Country Bumpkin
TTITLE1=Being Gone
TTITLE2=Birds And Children Fly Away
TTITLE3=I Know It's Not Her
TTITLE4=Lorene
TTITLE5=Nobody Will Ever Takke Her Place
TTITLE6=King Lear
TTITLE7=I Think That I'd Be Better Off
TTITLE8=Mobile Bay
TTITLE9=Lucy Nedds A Friend
EXTD=
EXTT0=
EXTT1=
EXTT2=
EXTT3=
EXTT4=
EXTT5=
EXTT6=
EXTT7=
EXTT8=
EXTT9=
PLAYORDER=
